<svg width="67" height="67" viewBox="0 0 67 67" fill="none" xmlns="http://www.w3.org/2000/svg">
<g filter="url(#filter0_d_60_1660)">
<path fill-rule="evenodd" clip-rule="evenodd" d="M11 29.6256C11 40.8119 19.1244 50.1138 29.75 52V35.7494H24.125V29.5H29.75V24.4994C29.75 18.8744 33.3744 15.7506 38.5006 15.7506C40.1244 15.7506 41.8756 16 43.4994 16.2494V22H40.625C37.8744 22 37.25 23.3744 37.25 25.1256V29.5H43.25L42.2506 35.7494H37.25V52C47.8756 50.1138 56 40.8138 56 29.6256C56 17.1813 45.875 7 33.5 7C21.125 7 11 17.1813 11 29.6256Z" fill="black"/>
</g>
<defs>
<filter id="filter0_d_60_1660" x="0" y="0" width="67" height="67" filterUnits="userSpaceOnUse" color-interpolation-filters="sRGB">
<feFlood flood-opacity="0" result="BackgroundImageFix"/>
<feColorMatrix in="SourceAlpha" type="matrix" values="0 0 0 0 0 0 0 0 0 0 0 0 0 0 0 0 0 0 127 0" result="hardAlpha"/>
<feOffset dy="4"/>
<feGaussianBlur stdDeviation="5.5"/>
<feColorMatrix type="matrix" values="0 0 0 0 0 0 0 0 0 0 0 0 0 0 0 0 0 0 0.11 0"/>
<feBlend mode="normal" in2="BackgroundImageFix" result="effect1_dropShadow_60_1660"/>
<feBlend mode="normal" in="SourceGraphic" in2="effect1_dropShadow_60_1660" result="shape"/>
</filter>
</defs>
</svg>
