<svg width="185" height="55" viewBox="0 0 185 55" fill="none" xmlns="http://www.w3.org/2000/svg">
<path d="M21.0139 32.5706V5.39546C21.0139 2.13809 19.4242 0.835205 16.1514 0.835205C11.0083 0.835205 5.67834 2.51048 0.628906 4.651V6.2331H8.29652V36.1072C8.29652 48.6712 13.7201 53.7901 23.2582 53.7901C29.5231 53.7901 35.4142 50.9049 40.3703 46.3446V46.9962C40.7441 51.6493 43.3626 53.4174 49.1601 53.4174C52.994 53.4174 58.1371 51.1837 61.3163 48.4848L61.1291 47.6475H53.929L53.0873 29.4068V5.67467C53.0873 2.4173 51.4044 1.02124 48.0379 1.02124C42.8949 1.02124 37.7521 2.60334 32.7024 4.651V6.2331H40.3703V43.4593C37.4716 44.7622 34.8531 45.7862 31.8611 45.7862C24.2868 45.7862 21.0139 42.0632 21.0139 32.5706Z" fill="black"/>
<path d="M148.867 46.6296C148.137 46.6296 147.704 46.2437 147.704 45.3979C147.704 44.7154 148.166 44.2848 149.121 44.0622C149.479 43.9735 149.971 43.914 150.343 43.8548V46.1253C149.792 46.4663 149.315 46.6296 148.867 46.6296ZM148.987 43.6319C147.391 43.8246 145.736 44.3591 145.736 46.0951C145.736 47.0596 146.482 47.8019 147.734 47.8019C148.822 47.8019 149.672 47.2082 150.343 46.3775V46.6C150.373 47.4311 150.791 47.7723 151.745 47.7723C152.327 47.7723 153.147 47.4311 153.684 46.9856L153.668 46.8522H152.506L152.371 43.8101V41.7473C152.371 39.8775 151.044 39.4025 149.732 39.4025C148.36 39.4025 146.929 40.2187 146.332 40.7233L146.467 40.9163C147.018 40.6046 147.794 40.4114 148.494 40.4114C149.463 40.4114 150.343 40.8417 150.343 42.0142V43.4982L148.987 43.6319ZM142.336 37.9334C142.605 37.9334 143.5 36.9837 143.5 36.7907C143.5 36.5534 142.561 35.6628 142.336 35.6628C142.113 35.6628 141.204 36.5238 141.204 36.7907C141.204 37.0281 142.098 37.9334 142.336 37.9334ZM143.41 43.6171V40.1148C143.41 39.5954 143.157 39.3874 142.635 39.3874C141.815 39.3874 140.965 39.6546 140.16 39.9959V40.2486H141.382V43.6171L141.323 46.5553C141.308 46.9853 141.173 47.1931 140.697 47.3269L140.249 47.4308C140.249 47.5047 140.249 47.5793 140.279 47.6681H144.588C144.618 47.5941 144.633 47.4902 144.633 47.4308L143.992 47.2822C143.59 47.1783 143.455 46.9557 143.455 46.555L143.41 43.6171ZM132.481 40.1148C132.481 39.5954 132.227 39.3874 131.706 39.3874C130.886 39.3874 130.036 39.6546 129.231 39.9959V40.2486H130.453V43.6171L130.394 46.5553C130.379 46.9853 130.244 47.1931 129.768 47.3269L129.321 47.4308C129.321 47.5047 129.321 47.5793 129.35 47.6681H133.659C133.689 47.5941 133.704 47.4902 133.704 47.4308L133.063 47.2822C132.661 47.1783 132.526 46.9557 132.526 46.555L132.482 43.6168V41.0645C133.063 40.7976 133.585 40.6937 134.062 40.6937C135.255 40.6937 135.851 41.2424 135.866 42.6967V43.6171L135.807 46.5553C135.792 46.9853 135.657 47.1931 135.18 47.3269L134.733 47.4308C134.733 47.5047 134.733 47.5793 134.763 47.6681H139.072C139.102 47.5941 139.117 47.4902 139.117 47.4308L138.476 47.2822C138.074 47.1783 137.939 46.9557 137.939 46.555L137.894 43.6168V42.2069C137.894 40.1888 136.97 39.3874 135.449 39.3874C134.346 39.3874 133.272 39.9663 132.482 40.6934V40.1148H132.481ZM124.355 39.8772C125.548 39.8772 125.995 40.9755 125.995 42.8897H122.312C122.357 40.6638 123.192 39.8772 124.355 39.8772ZM127.888 43.3946V43.0379C127.888 40.9903 126.874 39.3874 124.474 39.3874C122.058 39.3874 120.403 41.4949 120.403 43.8989C120.403 46.4659 121.596 47.8164 124.206 47.8164C125.682 47.8164 126.919 47.2378 127.531 46.4511L127.426 46.3026C126.576 46.6142 125.786 46.7033 125.175 46.7033C123.55 46.7033 122.461 45.7832 122.327 43.4531V43.394H127.888V43.3946ZM105.523 40.2486V43.6171L105.463 46.5553C105.448 46.9853 105.314 47.1931 104.837 47.3269L104.39 47.4308C104.39 47.5047 104.39 47.5793 104.42 47.6681H108.729C108.759 47.5941 108.774 47.4902 108.774 47.4308L108.133 47.2822C107.73 47.1783 107.596 46.9557 107.596 46.555L107.551 43.6168V41.0198C108.029 40.7973 108.52 40.6934 108.968 40.6934C110.161 40.6934 110.698 41.2421 110.712 42.6964V43.6168L110.653 46.555C110.638 46.985 110.504 47.1928 110.027 47.3266L109.58 47.4304C109.58 47.5044 109.58 47.579 109.61 47.6678H113.919C113.948 47.5938 113.964 47.4899 113.964 47.4304L113.322 47.2819C112.92 47.178 112.786 46.9554 112.786 46.5547L112.741 43.6165V42.2066C112.741 41.7763 112.696 41.4055 112.622 41.079C113.158 40.8266 113.666 40.6931 114.172 40.6931C115.365 40.6931 115.902 41.2418 115.917 42.6961V43.6165L115.857 46.5547C115.843 46.9847 115.708 47.1925 115.231 47.3262L114.784 47.4301C114.784 47.5041 114.784 47.5787 114.814 47.6675H119.138C119.168 47.5935 119.183 47.4896 119.183 47.4301L118.527 47.2815C118.125 47.1777 117.99 46.9551 117.99 46.5544L117.945 43.6162V42.2063C117.945 40.1882 117.081 39.3867 115.559 39.3867C114.411 39.3867 113.353 40.01 112.548 40.8115C112.19 39.8023 111.415 39.3867 110.341 39.3867C109.297 39.3867 108.328 39.9656 107.553 40.678V40.1142C107.553 39.5948 107.299 39.3867 106.778 39.3867C105.957 39.3867 105.108 39.654 104.302 39.9952V40.248H105.523V40.2486ZM96.8002 44.4482V40.1148C96.8002 39.5954 96.5469 39.3874 96.025 39.3874C95.2049 39.3874 94.3554 39.6546 93.5501 39.9959V40.2486H94.7725V45.0119C94.7725 47.0156 95.6373 47.8318 97.1579 47.8318C98.1571 47.8318 99.0964 47.3716 99.8868 46.6444V46.7483C99.9463 47.4902 100.364 47.7723 101.289 47.7723C101.9 47.7723 102.72 47.4163 103.227 46.9856L103.197 46.8522H102.049L101.914 43.9436V40.1595C101.914 39.6401 101.646 39.4173 101.109 39.4173C100.289 39.4173 99.4693 39.6701 98.6644 39.9962V40.2489H99.8868V46.1845C99.4244 46.3923 99.0072 46.5557 98.53 46.5557C97.3224 46.5553 96.8002 45.9617 96.8002 44.4482Z" fill="black"/>
<path d="M178.405 26.8497V22.5161C178.405 21.9968 178.151 21.789 177.629 21.789C176.809 21.789 175.959 22.0562 175.154 22.3975V22.6496H176.377V27.4132C176.377 29.4165 177.241 30.2324 178.762 30.2324C179.761 30.2324 180.701 29.7725 181.491 29.0453V29.1492C181.55 29.8908 181.968 30.1732 182.893 30.1732C183.504 30.1732 184.324 29.8169 184.831 29.3866L184.801 29.2531H183.653L183.519 26.3445V22.5602C183.519 22.0408 183.25 21.8183 182.714 21.8183C181.893 21.8183 181.073 22.0707 180.268 22.3971V22.6493H181.491V28.5854C181.029 28.7932 180.611 28.9562 180.134 28.9562C178.926 28.9566 178.405 28.3629 178.405 26.8497ZM168.773 22.6496V26.0184L168.713 28.9566C168.698 29.3869 168.564 29.5946 168.087 29.7284L167.64 29.8323C167.64 29.9063 167.64 29.9806 167.669 30.0696H171.979C172.008 29.9953 172.023 29.8915 172.023 29.8323L171.383 29.6837C170.98 29.5798 170.846 29.3573 170.846 28.9562L170.801 26.0181V23.6733C171.218 23.4211 171.77 23.2134 172.382 23.2134C172.889 23.2134 173.365 23.3173 173.813 23.5546L174.32 21.9668C174.036 21.863 173.753 21.7887 173.365 21.7887C172.202 21.7887 171.278 22.5454 170.801 23.3764V22.5158C170.801 21.9964 170.547 21.7887 170.026 21.7887C169.205 21.7887 168.356 22.0559 167.55 22.3971V22.6493H168.773V22.6496ZM163.971 26.1519C163.971 28.3484 163.524 29.758 162.182 29.758C160.632 29.758 160.214 28.0664 160.214 25.8553C160.214 23.7334 160.616 22.2492 162.003 22.2492C163.658 22.2489 163.971 24.3859 163.971 26.1519ZM166.133 25.9145C166.133 23.1098 164.702 21.789 162.167 21.789C159.841 21.789 158.066 24 158.066 26.1667C158.066 28.9566 159.454 30.2327 162.033 30.2327C164.434 30.2327 166.133 27.9625 166.133 25.9145ZM154.25 26.0184C154.25 28.1998 153.579 29.6393 152.103 29.6393C151.551 29.6393 151.208 29.5502 150.88 29.4168L150.85 25.6473V23.1838C151.193 23.0651 151.715 22.8574 152.237 22.8574C153.549 22.8574 154.25 23.5993 154.25 26.0184ZM156.367 25.7363C156.367 23.0503 155.279 21.8038 153.176 21.8038C152.192 21.8038 151.446 22.2936 150.85 22.8426V22.5161C150.85 21.9968 150.597 21.789 150.075 21.789C149.255 21.789 148.405 22.0562 147.6 22.3975V22.6496H148.823V25.8698L148.703 32.2215C148.688 32.6518 148.554 32.8595 148.077 32.993L147.63 33.0969C147.63 33.1709 147.63 33.2451 147.66 33.3342H152.058C152.088 33.2603 152.103 33.1564 152.103 33.0969L151.462 32.9486C151.059 32.8447 150.925 32.6219 150.925 32.2212L150.895 30.1137C151.209 30.1587 151.522 30.188 151.984 30.188C154.399 30.1883 156.367 28.7787 156.367 25.7363ZM142.009 29.1643C140.846 29.1643 139.832 28.1998 139.832 25.7363C139.832 23.4803 140.532 22.2933 142.083 22.2933C142.56 22.2933 142.933 22.3971 143.29 22.5602V28.9267C142.918 29.0604 142.471 29.1643 142.009 29.1643ZM144.707 30.1735C145.319 30.1735 146.124 29.8172 146.646 29.3869L146.616 29.2534H145.467L145.318 26.0776V19.3702C145.318 18.8508 145.065 18.6431 144.543 18.6431C143.723 18.6431 142.873 18.91 142.068 19.2663V19.5037H143.29V21.9077C142.962 21.8633 142.545 21.8334 142.023 21.8334C139.682 21.8334 137.818 23.5549 137.818 26.2705C137.818 29.5502 139.503 30.1735 141.054 30.1735C141.918 30.1735 142.709 29.7432 143.305 29.2386C143.38 29.9066 143.813 30.1735 144.707 30.1735ZM134.001 26.1519C134.001 28.3484 133.554 29.758 132.212 29.758C130.662 29.758 130.244 28.0664 130.244 25.8553C130.244 23.7334 130.646 22.2492 132.033 22.2492C133.688 22.2489 134.001 24.3859 134.001 26.1519ZM136.163 25.9145C136.163 23.1098 134.732 21.789 132.197 21.789C129.871 21.789 128.097 24 128.097 26.1667C128.097 28.9566 129.484 30.2327 132.063 30.2327C134.464 30.2327 136.163 27.9625 136.163 25.9145ZM124.28 26.0184C124.28 28.1998 123.609 29.6393 122.133 29.6393C121.581 29.6393 121.238 29.5502 120.91 29.4168L120.88 25.6473V23.1838C121.223 23.0651 121.745 22.8574 122.267 22.8574C123.579 22.8574 124.28 23.5993 124.28 26.0184ZM126.397 25.7363C126.397 23.0503 125.309 21.8038 123.206 21.8038C122.222 21.8038 121.477 22.2936 120.88 22.8426V22.5161C120.88 21.9968 120.627 21.789 120.105 21.789C119.285 21.789 118.435 22.0562 117.63 22.3975V22.6496H118.853V25.8698L118.733 32.2215C118.718 32.6518 118.584 32.8595 118.107 32.993L117.66 33.0969C117.66 33.1709 117.66 33.2451 117.69 33.3342H122.088C122.118 33.2603 122.133 33.1564 122.133 33.0969L121.492 32.9486C121.089 32.8447 120.955 32.6219 120.955 32.2212L120.926 30.1137C121.239 30.1587 121.551 30.188 122.014 30.188C124.429 30.1883 126.397 28.7787 126.397 25.7363ZM107.819 29.0308C107.088 29.0308 106.656 28.6446 106.656 27.7991C106.656 27.1164 107.118 26.686 108.073 26.4635C108.431 26.3744 108.922 26.3152 109.295 26.2557V28.5263C108.744 28.8675 108.266 29.0308 107.819 29.0308ZM107.938 26.0332C106.343 26.2262 104.688 26.7606 104.688 28.4967C104.688 29.4612 105.433 30.2031 106.686 30.2031C107.774 30.2031 108.624 29.6094 109.295 28.7787V29.0016C109.325 29.8326 109.742 30.1738 110.697 30.1738C111.278 30.1738 112.098 29.8326 112.635 29.3872L112.62 29.2537H111.457L111.323 26.2117V24.1489C111.323 22.2791 109.996 21.8041 108.684 21.8041C107.312 21.8041 105.88 22.6203 105.284 23.1249L105.418 23.3179C105.97 23.0063 106.745 22.8133 107.446 22.8133C108.415 22.8133 109.295 23.2436 109.295 24.4158V25.9L107.938 26.0332ZM97.0087 22.5161C97.0087 21.9968 96.7553 21.789 96.2335 21.789C95.4133 21.789 94.5638 22.0562 93.7582 22.3975V22.6496H94.981V26.0184L94.9215 28.9566C94.9067 29.3869 94.7722 29.5946 94.2953 29.7284L93.8481 29.8323C93.8481 29.9063 93.8481 29.9806 93.8781 30.0696H98.1868C98.2172 29.9953 98.232 29.8915 98.232 29.8323L97.5909 29.6837C97.1886 29.5798 97.0542 29.3573 97.0542 28.9562L97.0093 26.0181V23.4655C97.5909 23.1986 98.1128 23.0947 98.5898 23.0947C99.7828 23.0947 100.379 23.6437 100.394 25.098V26.0181L100.334 28.9562C100.319 29.3866 100.185 29.5943 99.7084 29.7281L99.2612 29.832C99.2612 29.9059 99.2612 29.9802 99.291 30.0693H103.6C103.63 29.995 103.645 29.8912 103.645 29.832L103.004 29.6834C102.601 29.5795 102.467 29.357 102.467 28.9559L102.422 26.0178V24.6079C102.422 22.5898 101.498 21.7884 99.9773 21.7884C98.8741 21.7884 97.8003 22.3673 97.0099 23.0944V22.5161H97.0087Z" fill="black"/>
<path d="M125.145 11.6711C123.981 11.6711 122.968 10.7063 122.968 8.24312C122.968 5.98737 123.668 4.79999 125.219 4.79999C125.696 4.79999 126.069 4.90387 126.427 5.06724V11.4335C126.054 11.5673 125.607 11.6711 125.145 11.6711ZM127.844 12.68C128.455 12.68 129.26 12.324 129.782 11.8937L129.752 11.7602H128.604L128.455 8.58435V1.87657C128.455 1.35717 128.201 1.14941 127.679 1.14941C126.859 1.14941 126.01 1.41667 125.204 1.77269V2.01035H126.427V4.41438C126.099 4.36968 125.682 4.34009 125.16 4.34009C122.819 4.34009 120.955 6.06165 120.955 8.77731C120.955 12.0568 122.64 12.68 124.19 12.68C125.055 12.68 125.845 12.2497 126.442 11.7451C126.516 12.4131 126.949 12.68 127.844 12.68ZM113.037 5.02286C113.037 4.50346 112.784 4.2957 112.262 4.2957C111.442 4.2957 110.592 4.56264 109.787 4.90387V5.15633H111.009V8.52485L110.95 11.4634C110.935 11.8937 110.801 12.1015 110.324 12.2349L109.877 12.3388C109.877 12.4131 109.877 12.4874 109.907 12.5762H114.216C114.246 12.5022 114.26 12.3983 114.26 12.3388L113.619 12.1905C113.217 12.0867 113.083 11.8641 113.083 11.4634L113.038 8.52485V5.97257C113.619 5.70532 114.141 5.60144 114.619 5.60144C115.811 5.60144 116.408 6.15074 116.423 7.60505V8.52485L116.363 11.4634C116.348 11.8937 116.214 12.1015 115.737 12.2349L115.29 12.3388C115.29 12.4131 115.29 12.4874 115.319 12.5762H119.629C119.659 12.5022 119.674 12.3983 119.674 12.3388L119.033 12.1905C118.63 12.0867 118.496 11.8641 118.496 11.4634L118.451 8.52485V7.11524C118.451 5.09683 117.526 4.2957 116.006 4.2957C114.903 4.2957 113.829 4.87428 113.038 5.60144V5.02286H113.037ZM106.208 8.65833C106.208 10.8546 105.761 12.2642 104.419 12.2642C102.869 12.2642 102.451 10.5725 102.451 8.36148C102.451 6.23919 102.853 4.75529 104.24 4.75529C105.895 4.75561 106.208 6.89269 106.208 8.65833ZM108.37 8.42098C108.37 5.61623 106.939 4.2957 104.404 4.2957C102.078 4.2957 100.304 6.50676 100.304 8.67343C100.304 11.4634 101.69 12.7395 104.27 12.7395C106.67 12.7395 108.37 10.4687 108.37 8.42098ZM100.975 2.2625C100.975 1.52055 99.8418 1.14941 98.4255 1.14941C96.7998 1.14941 94.9957 2.48505 94.9957 4.11753V4.94857L93.803 5.08204V5.57185H94.9957V8.52485L94.9363 11.4634C94.9214 11.8937 94.787 12.1015 94.31 12.2349L93.8628 12.3388C93.8628 12.4131 93.8628 12.4874 93.8929 12.5762H98.2171C98.2468 12.5022 98.2617 12.3983 98.2617 12.3388L97.6206 12.1905C97.2183 12.0867 97.0841 11.8641 97.0841 11.4634L97.0389 8.52485V5.57185H98.8133V4.94857H97.0389V4.01365C97.0389 2.73751 97.2034 1.59483 98.5001 1.59483C99.1713 1.59483 99.6334 2.44067 100.141 3.22701C100.587 3.03404 100.975 2.78189 100.975 2.2625Z" fill="black"/>
<path d="M80.0612 47.9985C80.0612 46.3163 74.7382 41.1865 73.1328 41.1865C71.5273 41.1865 66.2888 46.2322 66.2888 47.9985C66.2888 49.6804 71.5273 54.9783 73.1328 54.9783C74.7382 54.9783 80.0612 49.596 80.0612 47.9985Z" fill="black"/>
</svg>
