<svg width="68" height="67" viewBox="0 0 68 67" fill="none" xmlns="http://www.w3.org/2000/svg">
<g filter="url(#filter0_d_60_1661)">
<path fill-rule="evenodd" clip-rule="evenodd" d="M24.5177 7.135C26.9704 7.02455 27.7524 7 34 7C40.2476 7 41.0296 7.02659 43.4802 7.135C45.9307 7.24341 47.6035 7.62591 49.0671 8.18023C50.5997 8.74682 51.9902 9.6325 53.1402 10.778C54.3111 11.9009 55.2144 13.2591 55.7915 14.7605C56.3602 16.1923 56.7491 17.8286 56.862 20.2218C56.9749 22.6252 57 23.3902 57 29.5C57 35.6118 56.9728 36.3768 56.862 38.7761C56.7512 41.1693 56.3602 42.8057 55.7915 44.2375C55.2143 45.7391 54.3096 47.0995 53.1402 48.2241C51.9902 49.3695 50.5997 50.2532 49.0671 50.8177C47.6035 51.3741 45.9307 51.7545 43.4844 51.865C41.0296 51.9755 40.2476 52 34 52C27.7524 52 26.9704 51.9734 24.5177 51.865C22.0714 51.7566 20.3986 51.3741 18.935 50.8177C17.4001 50.2531 16.0094 49.368 14.8598 48.2241C13.6897 47.1005 12.7842 45.7407 12.2065 44.2395C11.6398 42.8077 11.2509 41.1714 11.138 38.7782C11.0251 36.3748 11 35.6098 11 29.5C11 23.3882 11.0272 22.6232 11.138 20.2259C11.2488 17.8286 11.6398 16.1923 12.2065 14.7605C12.7851 13.2593 13.6912 11.8995 14.8619 10.7759C16.0099 9.63148 17.3992 8.74568 18.9329 8.18023C20.3965 7.62591 22.0693 7.24545 24.5156 7.135H24.5177ZM43.2941 11.185C40.8686 11.0766 40.141 11.0541 34 11.0541C27.859 11.0541 27.1314 11.0766 24.7059 11.185C22.4624 11.2852 21.2455 11.6514 20.4342 11.9602C19.3615 12.3693 18.5942 12.8541 17.7892 13.6416C17.0261 14.3678 16.4388 15.2519 16.0705 16.2291C15.7547 17.0227 15.3805 18.2132 15.278 20.408C15.1672 22.7807 15.1442 23.4925 15.1442 29.5C15.1442 35.5075 15.1672 36.2193 15.278 38.592C15.3805 40.7868 15.7547 41.9773 16.0705 42.7709C16.4385 43.7466 17.026 44.6323 17.7892 45.3584C18.5315 46.105 19.4368 46.6798 20.4342 47.0398C21.2455 47.3486 22.4624 47.7148 24.7059 47.815C27.1314 47.9234 27.8569 47.9459 34 47.9459C40.1431 47.9459 40.8686 47.9234 43.2941 47.815C45.5376 47.7148 46.7545 47.3486 47.5658 47.0398C48.6385 46.6307 49.4058 46.1459 50.2108 45.3584C50.974 44.6323 51.5615 43.7466 51.9295 42.7709C52.2453 41.9773 52.6195 40.7868 52.722 38.592C52.8328 36.2193 52.8558 35.5075 52.8558 29.5C52.8558 23.4925 52.8328 22.7807 52.722 20.408C52.6195 18.2132 52.2453 17.0227 51.9295 16.2291C51.5114 15.1798 51.0158 14.4291 50.2108 13.6416C49.4684 12.8951 48.5647 12.3207 47.5658 11.9602C46.7545 11.6514 45.5376 11.2852 43.2941 11.185ZM31.0623 36.4361C32.7029 37.1042 34.5298 37.1944 36.2309 36.6912C37.9319 36.1881 39.4016 35.1228 40.389 33.6773C41.3764 32.2318 41.8201 30.4959 41.6445 28.7659C41.4688 27.0359 40.6846 25.4193 39.4259 24.192C38.6235 23.4076 37.6533 22.8069 36.5851 22.4333C35.5169 22.0596 34.3773 21.9223 33.2483 22.0313C32.1194 22.1402 31.0291 22.4926 30.0561 23.0632C29.0831 23.6338 28.2516 24.4083 27.6213 25.3311C26.991 26.2538 26.5777 27.3017 26.4111 28.3995C26.2445 29.4972 26.3288 30.6174 26.6579 31.6795C26.9869 32.7415 27.5526 33.719 28.3142 34.5415C29.0758 35.364 30.0144 36.0111 31.0623 36.4361ZM25.6405 21.3223C26.7383 20.2484 28.0416 19.3965 29.4759 18.8153C30.9102 18.2341 32.4475 17.9349 34 17.9349C35.5525 17.9349 37.0898 18.2341 38.5241 18.8153C39.9584 19.3965 41.2617 20.2484 42.3595 21.3223C43.4572 22.3962 44.328 23.6711 44.9222 25.0742C45.5163 26.4774 45.8221 27.9813 45.8221 29.5C45.8221 31.0187 45.5163 32.5226 44.9222 33.9258C44.328 35.3289 43.4572 36.6038 42.3595 37.6777C40.1424 39.8466 37.1354 41.0651 34 41.0651C30.8646 41.0651 27.8576 39.8466 25.6405 37.6777C23.4235 35.5089 22.1779 32.5672 22.1779 29.5C22.1779 26.4328 23.4235 23.4911 25.6405 21.3223ZM48.444 19.6573C48.716 19.4062 48.9338 19.1043 49.0845 18.7695C49.2351 18.4346 49.3155 18.0736 49.321 17.7078C49.3264 17.342 49.2568 16.9788 49.1162 16.6398C48.9756 16.3008 48.7669 15.9929 48.5025 15.7342C48.238 15.4755 47.9232 15.2713 47.5767 15.1338C47.2301 14.9963 46.8589 14.9281 46.485 14.9335C46.111 14.9388 45.742 15.0175 45.3997 15.1648C45.0574 15.3122 44.7488 15.5252 44.4922 15.7914C43.9931 16.3089 43.7199 16.9964 43.7305 17.7078C43.7411 18.4192 44.0347 19.0986 44.549 19.6017C45.0632 20.1048 45.7577 20.3921 46.485 20.4024C47.2122 20.4128 47.9149 20.1455 48.444 19.6573Z" fill="black"/>
</g>
<defs>
<filter id="filter0_d_60_1661" x="0" y="0" width="68" height="67" filterUnits="userSpaceOnUse" color-interpolation-filters="sRGB">
<feFlood flood-opacity="0" result="BackgroundImageFix"/>
<feColorMatrix in="SourceAlpha" type="matrix" values="0 0 0 0 0 0 0 0 0 0 0 0 0 0 0 0 0 0 127 0" result="hardAlpha"/>
<feOffset dy="4"/>
<feGaussianBlur stdDeviation="5.5"/>
<feColorMatrix type="matrix" values="0 0 0 0 0 0 0 0 0 0 0 0 0 0 0 0 0 0 0.11 0"/>
<feBlend mode="normal" in2="BackgroundImageFix" result="effect1_dropShadow_60_1661"/>
<feBlend mode="normal" in="SourceGraphic" in2="effect1_dropShadow_60_1661" result="shape"/>
</filter>
</defs>
</svg>
